<svg xmlns="http://www.w3.org/2000/svg" width="1200" height="720" viewBox="0 0 1200 720">
  <defs>
    <linearGradient id="bg" x1="0" y1="0" x2="1" y2="1">
      <stop offset="0" stop-color="#38bdf8" stop-opacity="0.45" />
      <stop offset="0.55" stop-color="#0b1220" stop-opacity="1" />
      <stop offset="1" stop-color="#a78bfa" stop-opacity="0.32" />
    </linearGradient>
    <radialGradient id="g1" cx="30%" cy="25%" r="55%">
      <stop offset="0" stop-color="#f8fafc" stop-opacity="0.18" />
      <stop offset="1" stop-color="#000" stop-opacity="0" />
    </radialGradient>
  </defs>

  <rect width="1200" height="720" fill="url(#bg)" />
  <rect width="1200" height="720" fill="url(#g1)" />

  <g opacity="0.22" fill="#e2e8f0">
    <!-- Cloud -->
    <path d="M420 420c-70 0-125-50-125-112 0-54 41-100 98-110 22-68 90-118 171-118 89 0 165 61 184 144 61 8 107 56 107 114 0 64-56 116-125 116H420z"/>
    <!-- Certificate card -->
    <rect x="170" y="470" width="860" height="150" rx="34" />
  </g>

  <g opacity="0.22" fill="#0b1220">
    <rect x="230" y="515" width="420" height="20" rx="10" />
    <rect x="230" y="550" width="520" height="14" rx="7" />
    <rect x="230" y="578" width="480" height="14" rx="7" />
  </g>
</svg>
