<svg xmlns="http://www.w3.org/2000/svg" width="1200" height="720" viewBox="0 0 1200 720">
  <defs>
    <linearGradient id="bg" x1="0" y1="0" x2="1" y2="1">
      <stop offset="0" stop-color="#6366f1" stop-opacity="0.45" />
      <stop offset="0.55" stop-color="#0b1220" stop-opacity="1" />
      <stop offset="1" stop-color="#22d3ee" stop-opacity="0.35" />
    </linearGradient>
    <radialGradient id="g1" cx="25%" cy="20%" r="55%">
      <stop offset="0" stop-color="#f8fafc" stop-opacity="0.18" />
      <stop offset="1" stop-color="#000" stop-opacity="0" />
    </radialGradient>
  </defs>

  <rect width="1200" height="720" fill="url(#bg)" />
  <rect width="1200" height="720" fill="url(#g1)" />

  <g opacity="0.22" fill="#e2e8f0">
    <rect x="130" y="120" width="940" height="480" rx="38" />
    <rect x="190" y="190" width="520" height="26" rx="13" />
    <rect x="190" y="235" width="420" height="18" rx="9" />
    <rect x="190" y="270" width="460" height="18" rx="9" />
    <rect x="190" y="330" width="820" height="18" rx="9" />
    <rect x="190" y="365" width="780" height="18" rx="9" />
    <rect x="190" y="400" width="740" height="18" rx="9" />
  </g>

  <g opacity="0.22" stroke="#e2e8f0" stroke-width="16" fill="none" stroke-linecap="round">
    <path d="M820 235 H1000" />
    <path d="M820 285 H950" />
    <path d="M820 335 H980" />
    <path d="M820 385 H930" />
  </g>
</svg>
