<svg xmlns="http://www.w3.org/2000/svg" width="1200" height="720" viewBox="0 0 1200 720">
  <defs>
    <linearGradient id="bg" x1="0" y1="0" x2="1" y2="1">
      <stop offset="0" stop-color="#34d399" stop-opacity="0.42" />
      <stop offset="0.55" stop-color="#0b1220" stop-opacity="1" />
      <stop offset="1" stop-color="#f97316" stop-opacity="0.28" />
    </linearGradient>
    <radialGradient id="g1" cx="30%" cy="25%" r="55%">
      <stop offset="0" stop-color="#f8fafc" stop-opacity="0.18" />
      <stop offset="1" stop-color="#000" stop-opacity="0" />
    </radialGradient>
  </defs>

  <rect width="1200" height="720" fill="url(#bg)" />
  <rect width="1200" height="720" fill="url(#g1)" />

  <g opacity="0.22" stroke="#e2e8f0" stroke-width="16" fill="none" stroke-linecap="round">
    <!-- Nodes + links -->
    <path d="M260 420 C360 300, 520 300, 620 420 S 880 540, 980 420" />
    <path d="M260 420 C380 520, 520 520, 620 420 S 860 300, 980 420" />
  </g>

  <g opacity="0.22" fill="#e2e8f0">
    <circle cx="260" cy="420" r="26" />
    <circle cx="620" cy="420" r="28" />
    <circle cx="980" cy="420" r="26" />
    <circle cx="440" cy="330" r="18" />
    <circle cx="800" cy="510" r="18" />
  </g>

  <g opacity="0.22" fill="#e2e8f0">
    <rect x="190" y="510" width="820" height="140" rx="34" />
  </g>
  <g opacity="0.22" fill="#0b1220">
    <rect x="250" y="555" width="520" height="20" rx="10" />
    <rect x="250" y="590" width="620" height="14" rx="7" />
    <rect x="250" y="618" width="560" height="14" rx="7" />
  </g>
</svg>
