<svg xmlns="http://www.w3.org/2000/svg" width="1200" height="600" viewBox="0 0 1200 600">
  <defs>
    <linearGradient id="bg" x1="0" y1="0" x2="1" y2="1">
      <stop offset="0" stop-color="#f97316" stop-opacity="0.40" />
      <stop offset="0.5" stop-color="#0b1220" stop-opacity="1" />
      <stop offset="1" stop-color="#22d3ee" stop-opacity="0.38" />
    </linearGradient>
    <radialGradient id="glow1" cx="30%" cy="20%" r="55%">
      <stop offset="0" stop-color="#f8fafc" stop-opacity="0.18" />
      <stop offset="1" stop-color="#000" stop-opacity="0" />
    </radialGradient>
    <radialGradient id="glow2" cx="78%" cy="78%" r="65%">
      <stop offset="0" stop-color="#a78bfa" stop-opacity="0.15" />
      <stop offset="1" stop-color="#000" stop-opacity="0" />
    </radialGradient>
  </defs>

  <rect width="1200" height="600" fill="url(#bg)" />
  <rect width="1200" height="600" fill="url(#glow1)" />
  <rect width="1200" height="600" fill="url(#glow2)" />

  <!-- Marketplace cards -->
  <g opacity="0.22" fill="#e2e8f0">
    <rect x="150" y="160" width="420" height="140" rx="28" />
    <rect x="150" y="320" width="420" height="140" rx="28" />
    <rect x="630" y="160" width="420" height="300" rx="32" />
  </g>

  <!-- Card content lines -->
  <g opacity="0.22" fill="#0b1220">
    <rect x="190" y="205" width="240" height="18" rx="9" />
    <rect x="190" y="235" width="320" height="14" rx="7" />
    <rect x="190" y="260" width="280" height="14" rx="7" />

    <rect x="190" y="365" width="210" height="18" rx="9" />
    <rect x="190" y="395" width="300" height="14" rx="7" />
    <rect x="190" y="420" width="260" height="14" rx="7" />

    <rect x="670" y="210" width="250" height="18" rx="9" />
    <rect x="670" y="245" width="340" height="14" rx="7" />
    <rect x="670" y="270" width="300" height="14" rx="7" />
    <rect x="670" y="305" width="290" height="14" rx="7" />
  </g>

  <!-- Connection nodes -->
  <g opacity="0.22" stroke="#e2e8f0" stroke-width="14" fill="none" stroke-linecap="round">
    <path d="M570 230 C640 230, 600 260, 630 260" />
    <path d="M570 390 C640 390, 600 355, 630 355" />
    <circle cx="570" cy="230" r="10" />
    <circle cx="570" cy="390" r="10" />
    <circle cx="630" cy="260" r="10" />
    <circle cx="630" cy="355" r="10" />
  </g>

  <!-- Rocket icon -->
  <g opacity="0.22" fill="#e2e8f0">
    <path d="M1030 130c-36 10-72 40-92 82-20 42-18 88 4 118l-42 42 30 30 42-42c30 22 76 24 118 4 42-20 72-56 82-92-34-10-70-30-98-58-28-28-48-64-58-98z" />
    <circle cx="980" cy="250" r="22" fill="#0b1220" opacity="0.65"/>
  </g>
</svg>
